# xmcd
#
# Track frame offsets:
# 150
# 10900
# 22310
# 33610
# 47185
# 58010
# 71803
# 87085
# 97160
# 109465
# 121310
# 135170
# 147030
# 157348
# 169623
# 181300
# 191350
# 202135
# 214050
# 226743
#
# Disc length: 3197 seconds
#
#
# Revision: 0
# Processed by: cddbd v1.5.2PL0 Copyright (c) Steve Scherf et al.
# Submitted via: FreeRIP 2.945 
#
DISCID=260c7b14
DTITLE=Various Artist - American Country
DYEAR=0094
DGENRE=Country
TTITLE0=He'll Have To Go
TTITLE1=Oh Lonesome Me
TTITLE2=Blue Bayon
TTITLE3=Gentle On My Mind
TTITLE4=Mule Skinner Blue
TTITLE5=Tom Dooley
TTITLE6=For The Good Times
TTITLE7=Release Me
TTITLE8=500 Miles Away From Home
TTITLE9=Ring On Fire
TTITLE10=Home Is Where You'Re Happy
TTITLE11=Sixteen Tons
TTITLE12=Bye Bye Love
TTITLE13=Stand By Your Man
TTITLE14=Mule Train
TTITLE15=Abilene
TTITLE16=Please Help Me,I'M Falling
TTITLE17=I Can't Stop Loving You
TTITLE18=Making Belives
TTITLE19=Jambalaya
EXTD=TRITON 79
EXTT0=
EXTT1=
EXTT2=
EXTT3=
EXTT4=
EXTT5=
EXTT6=
EXTT7=
EXTT8=
EXTT9=
EXTT10=
EXTT11=
EXTT12=
EXTT13=
EXTT14=
EXTT15=
EXTT16=
EXTT17=
EXTT18=
EXTT19=
PLAYORDER=
